<?xml version="1.0" standalone="no"?>
<!DOCTYPE svg PUBLIC "-//W3C//DTD SVG 1.1//EN" "http://www.w3.org/Graphics/SVG/1.1/DTD/svg11.dtd" >
<!--
2013-9-30: Created.
-->
<svg>
<metadata>
Created by iconfont
</metadata>
<defs>

<font id="WebApp" horiz-adv-x="1024" >
  <font-face
    font-family="WebApp"
    font-weight="500"
    font-stretch="normal"
    units-per-em="1024"
    ascent="896"
    descent="-128"
  />
    <missing-glyph />
    
    <glyph glyph-name="xuanze" unicode="&#57607;" d="M1006.34725342 686.15428875c-16.91680849 15.86488131-43.59731755 15.10704037-59.46219887-1.85275039L385.6668639 86.77034684 79.09437945 388.84103114c-16.57973998 16.32863474-43.21952871 16.15896885-59.54816343-0.42077114-16.32863474-16.53901964-16.11824852-43.21952871 0.4637534-59.50518114l337.29329957-332.28476634c0.12668359-0.12668359 0.29408754-0.16740394 0.42077113-0.29408754s0.16740394-0.29408754 0.29408753-0.42077113c2.65131038-2.52462679 5.85007549-3.95660607 8.92215701-5.63969058 1.51568058-0.88452455 2.81871431-2.18755697 4.41809622-2.81871431 4.96555225-1.93645172 10.22519074-2.94539791 15.44411017-2.94539794 5.51300698 0 11.02601265 1.09490945 16.15896886 3.28246776 1.72606681 0.71485867 3.0720815 2.18755697 4.67146472 3.11506379 3.15578283 1.85275041 6.43825057 3.40915134 9.13254323 6.14416304 0.12668359 0.12668359 0.16740394 0.33706982 0.29408753 0.46375339 0.0837013 0.12668359 0.25336719 0.16740394 0.37778885 0.29408756L1008.15249765 626.69661378C1024.14632451 643.56817803 1023.26406191 670.20570481 1006.34725342 686.15428875z"  horiz-adv-x="1024" />

    
    <glyph glyph-name="iconfontjikediancanicon20" unicode="&#58897;" d="M614.26294557 266.60063687l45.69858048 0 0-45.40750734-45.69858048 0 0 45.40750734ZM727.19956537 266.60063687l45.69858048 0 0-45.40750734-45.69858048 0 0 45.40750734ZM511.99941746 894.1277275c-281.0305536 0-508.84933063-227.81877703-508.84933063-508.84933063 0-281.02938965 227.81994098-508.85049571 508.84933063-508.85049572 281.0305536 0 508.84816669 227.82110606 508.84816668 508.85049572C1020.84758528 666.30895047 793.02997219 894.1277275 511.99941746 894.1277275zM827.32893981 189.75716351999995c0 0-2.13415253-41.33247431-43.07891656-47.15394958L243.82268075 142.60321394000005c0 0-32.40582371 1.94087936-38.80944754 43.85550222l-1.2015525 248.96470357 623.51725796 0L827.32893981 189.75716351999995zM827.32893981 591.73003037l0-76.26132594-623.51725796 0.30853802 1.2015525 78.28137757c6.69469696 33.47348253 39.00388466 34.34670421 39.00388466 34.34670421l538.486462 0C827.91108722 623.74814379 827.32893981 591.73003037 827.32893981 591.73003037zM670.44018176 266.60063687l45.69858048 0 0-45.40750734-45.69858048 0 0 45.40750734Z"  horiz-adv-x="1024" />

    
    <glyph glyph-name="xiazai6" unicode="&#57601;" d="M324.50144369 384.19406893L787.46364799 822.2397723c16.16921774 16.60468937 16.16921774 43.90681145 0 60.51149983-16.16921774 16.60468937-42.42999801 16.60468937-58.52348187 0L236.17661527 416.58930556c-8.63368084-8.95555014-12.32571589-20.90259558-11.70091004-32.39523663-0.64373959-11.89024428 3.06722919-23.83728969 11.70091004-32.77390713l492.74461713-466.16196757c16.09348385-16.6236221 42.37319685-16.6236221 58.52348188 0 16.16921774 17.05909273 16.16921774 43.90681145 0 60.51149982L324.50144369 384.19406893"  horiz-adv-x="1024" />

    
    <glyph glyph-name="choosehandle" unicode="&#58901;" d="M512 832c-249.856 0-448-198.656-448-448s198.656-448 448-448 448 198.656 448 448S761.856 832 512 832zM780.8 492.544 460.8 223.744l0 0c-6.656-6.656-12.8-6.656-25.6-6.656-6.656 0-19.456 6.656-25.6 12.8l0 0-121.344 153.6c-12.8 12.8-6.656 32.256 6.656 45.056 12.8 12.8 32.256 6.656 45.056-6.656l109.056-128L742.4 544.256c12.8 12.8 32.256 6.656 45.056-6.656C800.256 524.8 793.6 505.344 780.8 492.544z"  horiz-adv-x="1024" />

    
    <glyph glyph-name="gengduo" unicode="&#58884;" d="M235.79896915 398.09954989c0-60.33391996-48.8873236-109.25620856-109.27150537-109.25620856-60.31862313 0-109.23872499 48.92228863-109.23872494 109.25620856 0 60.36888496 48.92010398 109.27368997 109.23872494 109.27369C186.91164557 507.37323989 235.79896915 458.46843271 235.79896915 398.09954989zM621.25511518 398.09954989c0-60.33391996-48.88950825-109.25620856-109.2409118-109.25620856-60.34921672 0-109.27150535 48.92228863-109.27150531 109.25620856 0 60.36888496 48.92228863 109.27368997 109.27150531 109.27369C572.36560693 507.37323989 621.25511518 458.46843271 621.25511518 398.09954989zM1006.70907653 398.09954989c0-60.33391996-48.92010398-109.25620856-109.27369002-109.25620856-60.31643638 0-109.23872499 48.92228863-109.23872498 109.25620856 0 60.36888496 48.92447325 109.27368997 109.23872498 109.27369C957.78897255 507.37323989 1006.70907653 458.46843271 1006.70907653 398.09954989z"  horiz-adv-x="1024" />

    
    <glyph glyph-name="shouye" unicode="&#58882;" d="M801.651936-106.50442999999996L615.051027-106.50442999999996c-14.620999 0-26.473955 11.852956-26.473955 26.473955L588.577073 278.774447c0 13.279445-10.765181 24.043602-24.043602 24.043602L462.194664 302.818049c-13.279445 0-24.043602-10.765181-24.043602-24.043602l0-358.804922c0-14.620999-11.852956-26.473955-26.473955-26.473955L219.354893-106.50442999999996c-43.057655 0-77.963653 34.904974-77.963653 77.963653L141.391241 301.24011099999996c0 9.91379-8.037047 17.950837-17.950837 17.950837L74.350358 319.19094900000005c-45.830815 0-69.160149 55.069223-37.275975 87.992053l437.793928 452.055746c20.236903 20.896936 53.695946 21.078061 74.159 0.402159l443.664635-448.288956c33.81106-34.163077 9.610892-92.161003-38.454824-92.161003l-52.685943 0c-10.650571 0-19.284205-8.633634-19.284205-19.285229l0-325.797158C882.265952-70.41242 846.173942-106.50442999999996 801.651936-106.50442999999996zM687.458127-39.98952699999995l95.92677 0c17.875113 0 32.366152 14.491039 32.366152 32.366152L815.751049 352.65613099999996c0 18.252713 14.797008 33.04972 33.04972 33.04972l62.015426 0c5.069459 0 7.621585 6.116301 4.055362 9.719362L527.942087 786.387533c-8.608052 8.698103-22.683628 8.621355-31.197536-0.168846L108.868523 385.705851l65.988924 0c18.252713 0 33.04972-14.797008 33.04972-33.04972L207.907167-7.62337500000001c0-17.875113 14.491039-32.366152 32.366152-32.366152l98.996688 0c17.875113 0 32.366152 14.491039 32.366152 32.366152L371.636159 275.588895c0 51.773154 41.970904 93.744058 93.744058 93.744058l95.967702 0c51.773154 0 93.744058-41.970904 93.744058-93.744058L655.091976-7.62337500000001C655.091976-25.498487999999952 669.583015-39.98952699999995 687.458127-39.98952699999995z"  horiz-adv-x="1024" />

    
    <glyph glyph-name="iconfontzhizuobiaozhun0264" unicode="&#59086;" d="M997.569536 884.001735c-8.636704 8.637728-22.64065 8.637728-31.277354 0.002047l-539.497261-539.497261c-8.636704-8.636704-8.636704-22.641673 0.001023-31.278377l0 0c8.635681-8.636704 22.64065-8.636704 31.276331 0l539.497261 539.497261C1006.20624 861.362108 1006.20624 875.366054 997.569536 884.001735L997.569536 884.001735zM893.145232-128l-762.290463 0c-71.938426 0-130.464377 58.525951-130.464377 130.464377l0 744.656851c0 71.938426 58.525951 130.464377 130.464377 130.464377l408.487462 0c0.473791 0.029676 0.949628 0.050142 1.430582 0.050142 12.446473 0 22.537296-10.090822 22.537296-22.537296 0-12.008498-9.392928-21.819958-21.230534-22.496363-0.00614-0.014326-0.01228-0.027629-0.017396-0.040932l-411.207409 0c-47.110971 0-85.438904-38.327934-85.438904-85.438904l0-744.656851c0-47.110971 38.327934-85.438904 85.438904-85.438904l762.290463 0c47.110971 0 85.438904 38.327934 85.438904 85.438904l0 339.641467c-0.029676 0.471744-0.049119 0.946558-0.049119 1.425466 0 12.446473 10.089799 22.537296 22.537296 22.537296 12.446473 0 22.537296-10.090822 22.537296-22.537296l0-341.066933C1023.609609-69.473025 965.083657-128 893.145232-128z"  horiz-adv-x="1024" />

    
    <glyph glyph-name="yiwancheng" unicode="&#58898;" d="M512-114.66666667000004C233.6345-114.66666667000004 8 110.96783332999996 8 389.33333333S233.6345 893.33333333 512 893.33333333s504-225.6345 504-504-225.6345-504-504-504z m-48.7935 371.259l-144.207 145.908-95.004-90.8145c69.111-37.17 166.005-105.147 248.9445-210.357 58.59 110.187 239.211 335.5695 327.0645 355.635-14.175 56.826-22.2075 163.422 0 220.374-180.18-118.818-336.798-420.7455-336.798-420.7455z"  horiz-adv-x="1024" />

    
    <glyph glyph-name="wenhao" unicode="&#58885;" d="M550.4 51.200000000000045c-25.6 0-42.666667 17.066667-42.666667 42.666667v162.133333c0 76.8 64 115.2 123.733334 153.6 68.266667 42.666667 136.533333 85.333333 140.8 179.2 0 119.466667-98.133333 217.6-217.6 217.6s-217.6-98.133333-217.6-217.6c0-25.6-17.066667-42.666667-42.666667-42.666667s-42.666667 17.066667-42.666667 42.666667c0 166.4 136.533333 302.933333 302.933334 302.933333s302.933333-136.533333 302.933333-302.933333c-8.533333-140.8-106.666667-204.8-179.2-247.466667-51.2-29.866667-81.066667-51.2-81.066667-81.066666v-162.133334c-4.266667-25.6-25.6-46.933333-46.933333-46.933333zM550.4-55.46666700000003m-55.466667 0a55.466667 55.466667 0 1 1 110.933334 0 55.466667 55.466667 0 1 1-110.933334 0Z"  horiz-adv-x="1024" />

    
    <glyph glyph-name="tupianjiazaishibai" unicode="&#57605;" d="M776 568m-72 0a72 72 0 1 1 144 0 72 72 0 1 1-144 0ZM999.904 779.392a32 32 0 0 1-21.952 10.912l-456.192 31.904a31.552 31.552 0 0 1-27.2-11.904l-92.192-114.848a32 32 0 0 1 0.672-40.896l146.144-169.952-147.456-194.656 36.48 173.376a32 32 0 0 1-11.136 31.424L235.616 650.496l79.616 125.696a32 32 0 0 1-29.28 49.024l-240.192-16.768a32 32 0 0 1-29.696-34.176l55.808-798.016a32.064 32.064 0 0 1 34.304-29.696l176.512 13.184c17.632 1.312 30.848 16.672 29.504 34.272s-16.576 31.04-34.304 29.536l-144.448-10.784-6.432 92.512 125.312 12.576a32 32 0 0 1 28.672 35.04 32.16 32.16 0 0 1-35.04 28.672l-123.392-12.416L82.144 746.816l145.152 10.144-60.96-96.224a32 32 0 0 1 6.848-41.952l198.4-161.344-58.752-279.296a30.912 30.912 0 0 1 0.736-14.752 31.68 31.68 0 0 1 1.408-11.04l51.52-154.56a31.968 31.968 0 0 1 27.456-21.76l523.104-47.552a32.064 32.064 0 0 1 34.848 29.632L1007.68 756.16a32.064 32.064 0 0 1-7.776 23.232z m-98.912-630.848l-412.576 39.648a31.52 31.52 0 0 1-34.912-28.768 32 32 0 0 1 28.8-34.912l414.24-39.808-6.272-89.536-469.728 42.72-39.584 118.72 234.816 310.016a31.936 31.936 0 0 1-1.248 40.192L468.896 676.16l65.088 81.056 407.584-28.48-40.576-580.192z"  horiz-adv-x="1024" />

    
    <glyph glyph-name="guanbi" unicode="&#57606;" d="M57.51508391-118.95829260000005a48.2638849 48.2638849 0 0 0-34.18691848 80.43980817L927.47160914 867.23375544A48.2638849 48.2638849 0 1 0 994.63884895 799.26211754L91.70200237-104.88132616999997a48.2638849 48.2638849 0 0 0-34.18691846-14.07696643zM961.65852759-118.95829260000005a48.2638849 48.2638849 0 0 0-34.18691845 14.07696643L23.32816543 799.26211754a48.2638849 48.2638849 0 0 0 68.37383694 68.37383693L994.63884895-36.50748923000003a48.2638849 48.2638849 0 0 0-34.18691846-80.43980817z"  horiz-adv-x="1024" />

    
    <glyph glyph-name="tupian" unicode="&#57608;" d="M905.02360527 62.43523204999997a35.72941866 35.72941866 0 0 1 35.72941868 35.72941866V669.8353492900001a35.72941866 35.72941866 0 0 1-35.72941868 35.72941866H118.97639473a35.72941866 35.72941866 0 0 1-35.72941868-35.72941866v-571.67069858a35.72941866 35.72941866 0 0 1 35.72941868-35.72941866z m0-71.45883732H118.97639473a107.18825598 107.18825598 0 0 0-107.18825599 107.18825598V669.8353492900001a107.18825598 107.18825598 0 0 0 107.18825599 107.18825598h786.04721054a107.18825598 107.18825598 0 0 0 107.18825599-107.18825598v-571.67069858a107.18825598 107.18825598 0 0 0-107.18825599-107.18825598zM369.08232535 473.32354666a53.594128 53.594128 0 1 1-53.59412799-53.594128 53.594128 53.594128 0 0 1 53.59412799 53.594128z m71.45883733 0a125.0529653 125.0529653 0 1 0-125.05296532 125.0529653 125.0529653 125.0529653 0 0 0 125.05296532-125.0529653z m62.16918847-363.36818781a35.72941866 35.72941866 0 1 0-52.87953963 47.87742103l195.43992008 214.37651197a35.72941866 35.72941866 0 0 0 52.87953963 0l126.12484787-138.63014441a35.72941866 35.72941866 0 1 0-52.87953962-47.87742101l-99.68507807 109.68931529z m-252.24969574-2.14376511a35.72941866 35.72941866 0 0 0-48.59200939 52.16495126l154.70838281 142.91767464a35.72941866 35.72941866 0 0 0 48.23471519 0l60.02542335-55.02330473a35.72941866 35.72941866 0 1 0-48.59200939-52.52224545l-35.72941865 32.51377098z"  horiz-adv-x="1024" />

    
    <glyph glyph-name="xiazai6-copy" unicode="&#57602;" d="M696.85428795 383.80866802L240.42118092-48.059332359999985c-15.94118531-16.37051556-15.94118531-43.28759925 0-59.65811381 15.94118531-16.37051556 41.83161314-16.37051556 57.69813262-1e-8L783.93348252 351.87029729000005c8.51192114 8.82925117 12.15188789 20.60780893 11.53589358 31.93837073 0.63466102 11.72255767-3.02397244 23.50111542-11.53589358 32.31170085l-485.79550229 459.58774444c-15.86651948 16.38918127-41.77561304 16.38918127-57.69813263 0-15.94118531-16.81851053-15.94118531-43.28759925 0-59.6581138L696.85428795 383.80866802"  horiz-adv-x="1024" />

    
    <glyph glyph-name="mine-active" unicode="&#3684;" d="M270.373633 896m241.178358 0l0 0q241.178358 0 241.178358-241.178358l0 0q0-241.178358-241.178358-241.178358l0 0q-241.178358 0-241.178358 241.178358l0 0q0 241.178358 241.178358 241.178358ZM11.722911-27.197900000000004a101.698119 101.698119 0 0 0 16.576345 55.403821c50.475718 77.206942 214.745807 291.803413 483.252735 291.803413s433.075689-214.596471 483.402071-291.803413A101.698119 101.698119 0 0 0 1012.277089-27.197900000000004a100.8021 100.8021 0 0 0-100.8021-100.8021H112.525011A100.8021 100.8021 0 0 0 11.722911-27.197900000000004z"  horiz-adv-x="1024" />

    
    <glyph glyph-name="cart-active" unicode="&#3683;" d="M1016.70520133 281.84073858h-718.44689602l-79.33151165 381.53993456h879.55753331a71.98866675 71.98866675 0 0 0 67.95730167-95.60094961l-83.21889909-238.57044159a70.5488933 70.5488933 0 0 0-66.51752822-47.36854336zM412.86426312-29.582234630000016m-90.41776635 1e-8a90.41776538 90.41776538 0 1 1 180.83553173 0 90.41776538 90.41776538 0 1 1-180.83553173 0ZM905.41072236-29.582234630000016m-90.41776636 1e-8a90.41776538 90.41776538 0 1 1 180.83553173 0 90.41776538 90.41776538 0 1 1-180.83553173 0ZM832.84614603 743.14411673l-127.27596361 127.27596263a59.75059387 59.75059387 0 0 1-84.65867255 0l-127.41994026-127.27596263a18.86103056 18.86103056 0 0 1 13.24591439-32.10694593h312.86274666a18.71705292 18.71705292 0 0 1 13.24591537 32.10694593zM1011.80997139 110.50771143999998H310.35240153a43.19320064 43.19320064 0 0 0-43.19320064 35.70637908l-103.95163505 572.88581142H51.19320064a43.19320064 43.19320064 0 0 0 0 86.38640029h148.00869858a43.19320064 43.19320064 0 0 0 43.19320064-35.41842478L346.20275727 196.89411172999996h665.60721412a43.19320064 43.19320064 0 0 0 0-86.38640029z"  horiz-adv-x="1180" />

    
    <glyph glyph-name="category-active" unicode="&#3682;" d="M8 888m60.60517903 0l338.74784213 0q60.60517903 0 60.60518001-60.60517903l0-336.76328995q0-60.60517903-60.60518001-60.60517904l-338.74784213 0q-60.60517903 0-60.60517903 60.60517904l0 336.76328995q0 60.60517903 60.60517903 60.60517903ZM556.65243027 888m228.9868245 0l1.83189431 0q228.9868245 0 228.9868245-228.9868245l0 0q0-228.9868245-228.9868245-228.98682352l-1.83189431 0q-228.9868245 0-228.9868245 228.98682352l0 0q0 228.9868245 228.9868245 228.9868245ZM8 337.97364802000004m60.60517903 0l338.74784213 0q60.60517903 0 60.60518001-60.60517904l0-336.76328995q0-60.60517903-60.60518001-60.60517903l-338.74784213 0q-60.60517903 0-60.60517903 60.60517903l0 336.76328995q0 60.60517903 60.60517903 60.60517904ZM556.65243027 337.97364802000004m60.60518001 0l338.74784213 0q60.60517903 0 60.60517903-60.60517904l0-336.76328995q0-60.60517903-60.60517903-60.60517903l-338.74784213 0q-60.60517903 0-60.60518001 60.60517903l0 336.76328995q0 60.60517903 60.60518001 60.60517904Z"  horiz-adv-x="1024" />

    
    <glyph glyph-name="home-active" unicode="&#3681;" d="M376.52398198-112.69671023000001V1.3806696999999986a149.71743183 149.71743183 0 0 0 299.43486465 0v-114.07737993zM526.24141381 143.06448328a142.56020855 142.56020855 0 0 0 142.41414305-142.41414305V-105.24735496999995h-284.82828511v106.62802467a142.70627405 142.70627405 0 0 0 142.41414206 141.68381358m0 14.60657855a157.16678709 157.16678709 0 0 1-157.02072159-156.29039213V-119.85393450000004h314.04144417v121.2346042A157.02072159 157.02072159 0 0 1 526.24141381 157.67106182999999zM1010.44950017 494.4987683L603.07201841 858.78684291a114.95377491 114.95377491 0 0 1-153.51514271 0L42.17939394 494.4987683A102.24605081 102.24605081 0 0 1 8 418.10636119v-423.59078377A115.09984041 115.09984041 0 0 1 123.09984041-119.85393450000004h139.05462965v135.40298527a264.08694375 264.08694375 0 0 0 264.08694375 264.08694375 264.08694375 264.08694375 0 0 0 264.23301024-264.08694375V-119.85393450000004h138.90856415A115.09984041 115.09984041 0 0 1 1045.06709159-4.900159590000044v423.59078376a102.24605081 102.24605081 0 0 1-34.61759142 75.80814413z"  horiz-adv-x="1053" />

    
    <glyph glyph-name="ziyuan" unicode="&#57473;" d="M967.99999999 233.99999971h204.00000029a104.74999981 104.74999981 0 0 1 106.49999971 92.50000048A101.49999961 101.49999961 0 0 1 1177.00000038 436.9999998h-203.50000019a105.2499999 105.2499999 0 0 1-106.7500002-92.49999961A101.7500001 101.7500001 0 0 1 967.99999999 233.99999971M192.9999998 746.49999961A37.24999981 37.24999981 0 0 0 224.4999998 783.9999999h799.9999998a37.24999981 37.24999981 0 0 0 31.75000049-37.50000029A37.24999981 37.24999981 0 0 0 1024.00000038 709.0000001999999H224.4999998a37.24999981 37.24999981 0 0 0-31.50000001 37.49999941zM974.9999996 134.00000038999997a187.49999971 187.49999971 0 0 0-174.9999999 239.74999981A192.75000029 192.75000029 0 0 0 987.00000019 508.9999998H1151.99999989V715.7500001999999A118.24999981 118.24999981 0 0 1 1033.75000009 834H195.24999979A118.7499999 118.7499999 0 0 1 76.99999999 715.7500001999999v-638.49999991A143.75000039 143.75000039 0 0 1 220.25000028-66h813.49999981A118.24999981 118.24999981 0 0 1 1151.99999989 52.249999799999955V134.00000038999997z"  horiz-adv-x="1367" />

    
    <glyph glyph-name="ziyuan1" unicode="&#57474;" d="M362.61261256 140.75675653999997a103.37837871 103.37837871 0 1 1 103.37837871-103.37837782 103.37837871 103.37837871 0 0 1-103.37837871 103.37837782M946.39639616 140.75675653999997a103.37837871 103.37837871 0 1 1 103.3783787-103.37837782 103.37837871 103.37837871 0 0 1-103.37837871 103.37837782M851.04504538 298.86486474000003V542.1081082000001h123.56756718L1118.61261255 298.86486474000003z m331.29729667 71.75675655l-125.51351309 221.59459512A90.48648691 90.48648691 0 0 1 978.99099127 639.40540576H826.72072077V724.2972975600001A104.59459424 104.59459424 0 0 1 725.04504537 834H177.99099127A106.54054013 106.54054013 0 0 1 72.66666666 732.08108115v-563.1081082A123.56756719 123.56756719 0 0 1 113.5315314 79.94594588999996a43.78378359 43.78378359 0 0 1 69.56756807 21.16216231 182.67567539 182.67567539 0 0 0 170.27026963 125.51351309h8.02702705A181.21621641 181.21621641 0 0 0 534.82882896 86.27027051000005 41.1081082 41.1081082 0 0 1 575.45045025 55.62162128h151.05405411a78.56756719 78.56756719 0 0 1 29.43243281 7.54054103 180.48648691 180.48648691 0 0 0 177.56756719 162.72972949h8.2702705a182.18918935 182.18918935 0 0 0 172.94594591-140.8378377 41.83783769 41.83783769 0 0 1 40.3783787-31.13513525 39.64864834 39.64864834 0 0 1 36.48648604 41.59459424v229.37837871a91.9459459 91.9459459 0 0 1-9.24324346 45.72972949z"  horiz-adv-x="1273" />

    
    <glyph glyph-name="ziyuan2" unicode="&#57476;" d="M303.5479793 294.36817337A59.99153547 59.99153547 0 0 0 364.961115 358.62450957h551.29661821a59.99153547 59.99153547 0 0 0 61.41313572-65.39361677 59.42289517 59.42289517 0 0 0-63.40337625-48.33441195H366.95135551a59.42289517 59.42289517 0 0 0-63.40337621 48.05009231M366.95135551 586.080567h549.3063777a59.99153547 59.99153547 0 0 0 61.41313572-65.39361674 59.42289517 59.42289517 0 0 0-63.40337625-48.33441198H364.961115a59.99153547 59.99153547 0 0 0-61.4131357 65.3936158A59.42289517 59.42289517 0 0 0 366.95135551 586.080567M1081.44769501 870.40063784H192.94747169C108.50441057 870.40063784 25.76726935 813.53662349 25.76726935 728.24060244v-554.42413933c0-85.29602106 82.73714122-182.53348624 167.18020234-182.53348625h540.20813497L850.29547617-124.71961204000002l116.00258987 115.71826925h115.14962897c85.29602106 0 138.46387501 96.10018462 138.46387401 182.53348529V728.24060244a131.64019346 131.64019346 0 0 1-138.46387401 142.1600354"  horiz-adv-x="1229" />

    
    <glyph glyph-name="ziyuan4" unicode="&#57475;" d="M1136.93737984 362.80215323000004L998.36402828 661.2678331a80.188425 80.188425 0 0 1-72.67833105 48.45222071H703.04774371v-96.90444141h222.88021524l102.96096855-266.48721386H799.95218512v-121.13055177H388.10830827v121.13055177H187.03159234l92.78600274 266.48721386H509.2388609v96.90444141H260.67896851a83.822342 83.822342 0 0 1-77.76581484-54.75100957L75.34922388 360.37954219000005A81.6419918 81.6419918 0 0 1 73.16887369 330.58142636v-312.27456269a77.76581396 77.76581396 0 0 1 75.34320381-84.30686367H1066.43939898c45.78734883 0 72.67833105 38.27725401 72.67833106 84.30686367V327.18977109a79.70390332 79.70390332 0 0 1-2.66487187 35.61238213M450.61167349 539.65275879a41.42664844 41.42664844 0 0 1 1e-8-59.35396993l121.13055175-121.13055175A41.66891016 41.66891016 0 0 1 606.14330231 349.47779297a42.39569355 42.39569355 0 0 1 33.67429277 12.11305518l121.13055176 121.13055175a42.88021523 42.88021523 0 0 1 0 60.56527588 43.60699863 43.60699863 0 0 1-60.56527588-5.32974463l-40.21534336-45.78734795h-15.7469713V797.66083448a36.33916552 36.33916552 0 0 1-72.67833105-1e-8v-306.46029638h-18.89636572l-40.21534336 45.78734883a43.36473779 43.36473779 0 0 1-60.56527587 2.66487187"  horiz-adv-x="1214" />

    
    <glyph glyph-name="ziyuan5" unicode="&#58880;" d="M910.06321527 508.12705528h-2.67515719a376.92973631 376.92973631 0 0 1-30.2292841 146.33113261 383.08259883 383.08259883 0 0 1-203.3119935 203.3119935A376.92973631 376.92973631 0 0 1 525.37552114 887.9994645h-26.75157778a376.92973631 376.92973631 0 0 1-148.47125836-30.22928311 383.08259883 383.08259883 0 0 1-203.31199448-203.3119935A378.53483062 378.53483062 0 0 1 115.00631309 507.59202384a113.96172277 113.96172277 0 0 1-107.00631309-113.42669132v-188.86614174a113.69420705 113.69420705 0 0 1 113.96172277-113.69420803h66.87894543A113.96172277 113.96172277 0 0 1 302.26735953 205.29919078v188.86614174a113.96172277 113.96172277 0 0 1-113.42669133 113.96172276h-6.15286251A315.13359052 315.13359052 0 0 0 497.55388048 821.12052005h26.75157779a315.40110623 315.40110623 0 0 0 315.93613865-313.26098049A113.69420705 113.69420705 0 0 1 730.29260994 394.16533252v-188.86614174a113.96172277 113.96172277 0 0 1 85.07001923-109.68147126 300.15270731 300.15270731 0 0 0-257.08266675-148.73877408 33.43947272 33.43947272 0 0 1 0-66.87894544 362.48388356 362.48388356 0 0 1 194.75148952 56.71334616 366.76413605 366.76413605 0 0 1 131.88527986 146.59864832 29.15922023 29.15922023 0 0 1 2.14012673 8.29298827h24.07641961A113.96172277 113.96172277 0 0 1 1024.55997045 205.29919078v188.86614174a113.96172277 113.96172277 0 0 1-114.49675518 113.96172276zM235.65592981 394.16533252v-188.86614174a46.81526161 46.81526161 0 0 0-46.81526161-46.81526259h-66.87894543a47.08277733 47.08277733 0 0 0-47.08277733 46.81526259v188.86614174a47.08277733 47.08277733 0 0 0 47.08277733 47.08277732h66.87894543a46.81526161 46.81526161 0 0 0 46.81526161-47.08277732z m722.29261092-188.86614174a46.81526161 46.81526161 0 0 0-46.81526259-46.81526259h-66.87894445a47.08277733 47.08277733 0 0 0-47.08277832 46.81526259v188.86614174a47.08277733 47.08277733 0 0 0 47.08277832 47.08277732h66.87894445a46.81526161 46.81526161 0 0 0 46.81526259-47.08277732z"  horiz-adv-x="1032" />

    
    <glyph glyph-name="ziyuan7" unicode="&#225;" d="M8.75033098 331.28703472999996V444.76638914c2.31001214 9.52880119 4.62002428 18.91322606 6.64128577 28.87515422 42.44647641 195.77354245 158.81334623 326.57798939 348.08997825 389.81457605A1082.81826647 1082.81826647 0 0 0 473.4959307 888h64.82472019c7.94066766-1.58813353 15.736959-3.75377034 23.82200199-4.62002428A499.82891175 499.82891175 0 0 0 1014.6163123 397.12238616c7.79629134-261.32014125-181.33596534-476.44003772-450.01927097-513.25585861-239.95252772-31.76266964-480.33818339 135.56884655-540.39850299 376.82075714-5.77503084 23.38887502-10.2506798 47.06650069-15.44820736 70.59975004z m433.1273064-44.46773592c-46.63337372 47.06650069-91.96736456 93.12237113-137.73448336 138.74511361a133.40321072 133.40321072 0 0 1-31.76266866 24.68825592 39.41458467 39.41458467 0 0 1-51.253398-10.10630348 42.01334845 42.01334845 0 0 1-4.47564895-54.7184167 149.42892037 149.42892037 0 0 1 19.49072836-22.23386846q78.97354566-79.55104894 158.81334623-158.81334525c37.82645114-37.82645114 57.75030745-37.82645114 94.99925531 0L799.35204148 512.62300106a44.61211223 44.61211223 0 0 1 6.49690946 60.63782288 43.31273034 43.31273034 0 0 1-60.34907124 10.10630348 152.3164358 152.3164358 0 0 1-26.7095174-22.52262009L467.86527617 311.65193105000003c-7.65191602-7.5075397-15.44820736-15.59258269-25.9876388-24.83263224z"  horiz-adv-x="1024" />

    
    <glyph glyph-name="ziyuan8" unicode="&#227;" d="M1016 369.17333333a71.99999986 71.99999986 0 0 0-59.18400042-20.73600014c-51.12000042 1.15200028-102.23999986 0-153.3599993 0-30.96000042 0-48.81599986 14.39999958-48.81599986 38.59200056 0 26.78400014 16.55999986 41.90400014 48.23999972 42.19199972 54.57600028 0 109.00800028 1.72800042 163.44000028-0.86399972 16.84800042-0.72000042 33.11999972-12.52799986 49.67999958-19.29600028zM527.12 893.33333333a55.00800014 55.00800014 0 0 0 25.92000042-53.13600042c-1.43999986-52.84799986 0-105.69599972 0-158.3999993 0-32.40000028-14.39999958-49.96800014-40.1760007-50.2560007S471.82400028 648.53333361 471.68 681.22133347v158.40000028A57.60000028 57.60000028 0 0 0 497.60000042 893.33333333zM8 403.73333291a57.60000028 57.60000028 0 0 0 53.71199958 25.63200084c34.272-1.15200028 69.12000014 2.30399958 102.96000028-1.8720007a66.81599958 66.81599958 0 0 0 39.74399986-28.80000014 41.328 41.328 0 0 0-7.056-35.99999944 46.79999986 46.79999986 0 0 0-32.256-14.40000056 996.76799972 996.76799972 0 0 0-115.19999958 0C35.36000028 350.74133374999997 22.39999958 362.40533290999997 8 369.17333333zM491.84-114.66666667000004a75.6 75.6 0 0 0-19.43999958 69.69600028 37.58399958 37.58399958 0 0 0 38.59199958 35.71199986 38.88000014 38.88000014 0 0 0 40.89600014-36.288c3.31199958-25.92000042 2.016-50.4-19.72800014-69.12000014zM738.36800014 832.13333291c36.43200028 0 56.448-33.11999972 41.47200028-61.05599916-28.80000014-54.57600028-60.62400028-108.28799986-93.31200014-160.84800014a36.86400014 36.86400014 0 0 0-51.408-11.37600056 37.296 37.296 0 0 0-17.28000028 51.408c28.80000014 53.71199958 59.472 106.848 91.44000042 158.40000028a92.736 92.736 0 0 0 29.08799972 23.47199958zM753.34399986 487.39733291c-9.93599972 8.064-26.63999986 15.12-30.52799958 26.64000084a55.72799958 55.72799958 0 0 0 7.056 43.19999972 113.47200014 113.47200014 0 0 0 38.73599986 26.49599958c38.88000014 23.03999972 77.76000028 46.08000042 117.35999986 67.82400056 28.80000014 15.55199986 51.69599958 10.94399972 63.79199958-10.22400028s4.89599972-44.49600028-22.3199993-60.62400028c-47.376-28.80000014-95.47200042-55.72799958-144.0000007-82.94399958a199.43999972 199.43999972 0 0 0-30.09599972-10.36800056zM413.93600042 629.09333305c-7.91999972-9.072-15.55199986-24.62399986-27.79200014-30.24s-26.35200028 1.008-39.1680007 4.46399986c-5.47199986 1.58400014-10.36799958 8.64000014-13.53599986 14.40000056-28.80000014 49.82399986-58.31999972 99.64799972-86.39999944 150.192-13.39199958 24.47999958-7.91999972 46.51200028 10.51199986 57.60000028s43.19999972 7.48799986 57.60000028-17.28000028c31.248-50.4 60.62400028-102.09599958 90.28799916-153.50400056a141.84000042 141.84000042 0 0 0 8.49600084-25.63199986zM115.71199972 661.63733361c10.65600014-5.04 26.06399972-11.088 40.60800056-19.152 32.11199972-17.85600042 63.79199958-36.57599958 95.61599972-55.15200042 25.77600014-15.12 34.84800014-39.16799972 23.184-60.91199986s-36.57599958-27.07199972-63.21600042-11.95199972c-40.75199986 23.184-81.07199986 46.94400014-121.39199986 70.7039993a37.72799986 37.72799986 0 0 0-19.152 46.94400014c5.61600014 19.72800014 19.152 28.36800028 44.352 29.52000056zM223.99999958 191.18933318999996a89.56799972 89.56799972 0 0 0-19.72799916-25.91999944 662.40000028 662.40000028 0 0 0-70.27200042-42.336 44.20799972 44.20799972 0 0 0-57.60000028 11.80799944 37.58399958 37.58399958 0 0 0 13.104 54.72000056 532.80000014 532.80000014 0 0 0 84.38400042 48.384c26.92800042 12.24000028 51.98400014-7.77600042 50.11199944-46.65600056zM288.51199958-53.75466681c-35.56799958 0-56.16000042 25.48799958-45.93599916 51.55200028a288.00000042 288.00000042 0 0 0 35.4239993 63.21599944 38.88000014 38.88000014 0 0 0 54.00000014 9.072 38.15999972 38.15999972 0 0 0 13.104-51.11999944 297.93600014 297.93600014 0 0 0-31.39200028-54.14400042 86.40000042 86.40000042 0 0 0-25.2-18.57599986zM743.11999958 26.165333749999945a40.03200042 40.03200042 0 0 0 1.8720007-79.92000056A40.89600014 40.89600014 0 0 0 703.95199986-13.866666669999972a39.312 39.312 0 0 0 39.16799972 40.03200042z"  horiz-adv-x="1024" />

    
    <glyph glyph-name="ziyuan9" unicode="&#226;" d="M512.0579915 888a503.99263491 503.99263491 0 1 1 503.94201244-503.99263491A504.04325639 504.04325639 0 0 1 512.0579915 888z m200.46312169-698.58360338a47.17970381 47.17970381 0 0 0-66.82104057 0l-133.64208112 133.64208015-133.64208014-133.64208015A47.23032628 47.23032628 0 0 0 311.7973587 256.03494928l133.64208113 133.64208014L311.7973587 523.52159845a47.23032628 47.23032628 0 1 0 66.82104057 66.82104057l133.64208014-133.64208113L645.90256053 590.14015012A47.23032628 47.23032628 0 1 0 712.52111319 523.52159845l-133.64208113-133.64208112 133.64208113-133.64208014a47.28094777 47.28094777 0 0 0 0-66.82104057z"  horiz-adv-x="1024" />

    
    <glyph glyph-name="category-inactive" unicode="&#3666;" d="M410.42195459 828.01582184a14.785742 14.785742 0 0 0 14.78574199-14.785742v-325.28631628a14.785742 14.785742 0 0 0-14.78574199-14.78574105H82.76992016a14.785742 14.785742 0 0 0-14.785742 14.78574105V813.23007984a14.785742 14.785742 0 0 0 14.785742 14.785742h327.65203442m0 44.35722504H82.76992016a59.14296704 59.14296704 0 0 1-59.14296704-59.14296704v-325.28631628a59.14296704 59.14296704 0 0 1 59.14296704-59.14296608h327.65203442a59.14296704 59.14296704 0 0 1 59.14296703 59.14296608V813.23007984a59.14296704 59.14296704 0 0 1-59.14296703 59.14296704zM778.7347795 828.01582184a177.42890013 177.42890013 0 0 0 0-354.85779933h-1.92214664a177.42890013 177.42890013 0 1 0 0 354.85779933h1.92214664m0 44.35722504h-1.92214664a221.78612517 221.78612517 0 0 1-221.78612422-221.78612518 221.78612517 221.78612517 0 0 1 221.78612422-221.78612422h1.92214664a221.78612517 221.78612517 0 0 1 221.78612518 221.78612422 221.78612517 221.78612517 0 0 1-221.78612518 221.78612518zM410.42195459 295.72912238000004a14.785742 14.785742 0 0 0 14.78574199-14.78574199v-326.17346023a14.785742 14.785742 0 0 0-14.78574199-14.785742H82.76992016a14.785742 14.785742 0 0 0-14.785742 14.785742V280.94338039a14.785742 14.785742 0 0 0 14.785742 14.78574199h327.65203442m0 44.35722503H82.76992016a59.14296704 59.14296704 0 0 1-59.14296704-59.14296702v-326.17346023a59.14296704 59.14296704 0 0 1 59.14296704-59.14296704h327.65203442a59.14296704 59.14296704 0 0 1 59.14296703 59.14296704V280.94338039a59.14296704 59.14296704 0 0 1-59.14296703 59.14296702zM941.8215101 295.72912238000004a14.785742 14.785742 0 0 0 14.78574105-14.78574199v-326.17346023a14.785742 14.785742 0 0 0-14.78574105-14.785742H613.72590226a14.785742 14.785742 0 0 0-14.78574104 14.785742V280.94338039a14.785742 14.785742 0 0 0 14.78574104 14.78574199H941.8215101m0 44.35722503H613.72590226a59.14296704 59.14296704 0 0 1-59.14296607-59.14296702v-326.17346023a59.14296704 59.14296704 0 0 1 59.14296607-59.14296704H941.8215101a59.14296704 59.14296704 0 0 1 59.14296607 59.14296704V280.94338039a59.14296704 59.14296704 0 0 1-59.14296607 59.14296702z"  horiz-adv-x="1025" />

    
    <glyph glyph-name="dianpu" unicode="&#59651;" d="M359.40731905 330.92755772c-72.72053775 0-131.89066439 78.29126255-131.89066439 174.64973892 0 16.10993278 9.78640819 29.20866342 21.9817769 29.20866342s21.83121773-13.09873064 21.83121774-29.20866342c0-64.28917097 39.44675109-116.53353239 87.92710959-116.53353239s87.92710959 52.24436142 87.92710959 116.53353239c0 16.10993278 9.78640819 29.20866342 21.83121774 29.20866342s21.98177789-13.09873064 21.98177691-29.20866342c0-96.35847637-58.86900633-174.64973892-131.58954408-174.64973892M579.22509303 330.92755772c-72.72053775 0-131.89066439 78.29126255-131.89066439 174.64973892 0 16.10993278 9.78640819 29.20866342 21.83121774 29.20866342s21.98177789-13.09873064 21.9817769-29.20866342c0-64.28917097 39.44675109-116.53353239 87.9271096-116.53353239s87.92710959 52.24436142 87.92711057 116.53353239c0 16.10993278 9.78640819 29.20866342 21.98177691 29.20866342s21.83121773-13.09873064 21.83121773-29.20866342c0-96.35847637-58.86900633-174.64973892-131.58954506-174.64973892M798.89230784 330.92755772c-72.72053775 0-131.89066439 78.29126255-131.89066439 174.64973892 0 16.10993278 9.78640819 29.20866342 21.98177691 29.20866342s21.83121773-13.09873064 21.83121773-29.20866342c0-64.28917097 39.44675109-116.53353239 87.9271096-116.53353239s87.92710959 52.24436142 87.92710959 116.53353239c0 16.10993278 9.78640819 29.20866342 21.83121774 29.20866342s21.98177789-13.09873064 21.9817769-29.20866342c0-96.35847637-59.01956648-174.64973892-131.58954408-174.64973892M874.77460789-120H264.85556356a156.2814038 156.2814038 0 0 0-152.51740087 159.59372625v319.18745348a21.83121773 21.83121773 0 1 0 43.51187433 0v-319.18745348A111.71560838 111.71560838 0 0 1 263.95220361-74.38028348h610.82240428a111.56504822 111.56504822 0 0 1 108.85496639 113.97400973v319.18745348a21.83121773 21.83121773 0 1 0 43.51187433 0v-319.18745348a156.2814038 156.2814038 0 0 0-152.36684072-159.59372625M1018.40896152 344.47796883a126.01882027 126.01882027 0 0 0-90.33607111 38.24226984 147.69947686 147.69947686 0 0 0-41.70515344 103.43480274 21.98177789 21.98177789 0 1 0 43.81299464 0 96.65959669 96.65959669 0 0 1 27.85362201-68.95653483 84.31366683 84.31366683 0 0 1 65.94533269-25.4446605c45.92083683 3.1617623 81.90470531 46.37251631 81.90470531 98.3157584v93.94951388a75.28005942 75.28005942 0 0 1-5.8718451 29.35922358l-66.39701218 158.08812567a109.75832733 109.75832733 0 0 1-99.97192012 69.25765514H224.65601169a109.75832733 109.75832733 0 0 1-99.97191914-69.25765514L57.83539991 613.22778178a75.28005942 75.28005942 0 0 1-5.87184511-29.35922358v-93.64839356c0-51.94324111 35.98386848-95.15399513 81.90470531-98.31575841a83.86198636 83.86198636 0 0 1 65.9453317 25.4446605 97.26183731 97.26183731 0 0 1 27.853623 68.95653483 21.98177789 21.98177789 0 1 0 43.81299464 0 147.85003702 147.85003702 0 0 0-41.70515343-103.43480273 125.11545933 125.11545933 0 0 0-98.91799805-38.09170969C62.0510833 349.59701315999996 8 413.43450366 8 490.3707248v93.64839356a126.62106089 126.62106089 0 0 0 9.78640819 48.93203897l66.84869264 158.08812567A153.87244228 153.87244228 0 0 0 224.65601169 888h708.98760253a154.02300244 154.02300244 0 0 0 140.02091184-96.960717l66.84869264-158.23868583a123.76041792 123.76041792 0 0 0 9.78640819-48.93203897v-93.64839356c0-76.78566098-54.0510833-140.77371164-123.15817828-145.59163566h-8.73248709"  horiz-adv-x="1160" />

    
    <glyph glyph-name="kongjian" unicode="&#57360;" d="M643.81769267 459.59857011H368.41916094l185.88632737-31.95401344-194.59174711-163.86673472h292.91178853l-169.49965429 47.41893647z m0 0M512.10980408 893.33333333a503.99262605 503.99262605 0 1 1 503.8902097-503.99262605A503.99262605 503.99262605 0 0 1 512.10980408 893.33333333z m159.87248353-548.33906138l35.53859826-195.41108081-188.75399582 90.84362077L335.85064747 143.43818885999997l16.38667406 201.55608309-132.11755495 121.87588416v2.9700848l185.37424369 28.8815123 113.68254712 177.18090665 98.32004044-177.18090665 180.04857511-28.8815123"  horiz-adv-x="1024" />

    
    <glyph glyph-name="home-inactive" unicode="&#3665;" d="M512.00073139 834.90688035a52.29154448 52.29154448 0 0 0 34.9097175-13.29198413l392.04051764-350.55783984a40.16808534 40.16808534 0 0 0 13.43805061-29.21315316v-445.64665359A52.43760998 52.43760998 0 0 0 899.95140617-56.09429387H741.61611575V98.73541766000005a229.76145084 229.76145084 0 0 1-459.3768352 0V-56.09429387H124.05005562A52.43760998 52.43760998 0 0 0 71.61244564-3.8027503700000125V440.52931175a40.16808534 40.16808534 0 0 0 13.43805061 29.21315316L477.09101291 820.30030377a52.29154448 52.29154448 0 0 0 34.90971848 14.60657658m0 58.42630729a110.5717853 110.5717853 0 0 1-73.90927786-28.19069367l-392.04051764-350.55783886A98.59439264 98.59439264 0 0 1 13.18613834 440.52931175v-444.33206212A110.8639163 110.8639163 0 0 1 124.05005562-114.52060116999996h216.61553124V98.73541766000005a171.33514355 171.33514355 0 0 0 171.33514453 171.18907903A171.33514355 171.33514355 0 0 0 683.18980944 98.73541766000005V-114.52060116999996h216.76159673a110.8639163 110.8639163 0 0 1 110.86391728 110.86391728V440.52931175a98.59439264 98.59439264 0 0 1-32.86479754 73.03288289L585.76394277 865.14249397A110.5717853 110.5717853 0 0 1 512.00073139 893.33318764z"  horiz-adv-x="1024" />

    
    <glyph glyph-name="sousuo" unicode="&#57603;" d="M969.33234467-143.63028998999994a28.465007 28.465007 0 0 0 0-40.195092 27.995803 27.995803 0 0 0-35.346656-3.440825l-1.407611 1.251209a28.465007 28.465007 0 0 0-3.440825 2.346017 27.370199 27.370199 0 0 0-2.189616 3.440825L710.48846367 35.761814009999966a439.01799 439.01799 0 1 0 48.17155 41.133499c-2.033215-2.033215-4.222831-3.597226-6.256045-5.630441l210.828732-210.828732a25.024182 25.024182 0 0 0 6.256046-4.06643zM727.53618767 671.06323101a397.258887 397.258887 0 1 1 0-561.636482 397.258887 397.258887 0 0 1 0 561.636482z m0 0"  horiz-adv-x="1024" />

    
    <glyph glyph-name="mine-inactive" unicode="&#3668;" d="M511.925332 851.199067a196.377425 196.377425 0 1 0-196.377425-196.377425A196.676097 196.676097 0 0 0 511.925332 851.199067m0 44.800933a241.178358 241.178358 0 0 1-241.178358-241.178358A241.178358 241.178358 0 0 1 511.925332 413.643284a241.178358 241.178358 0 0 1 241.327694 241.178358A241.178358 241.178358 0 0 1 511.925332 896zM511.925332 275.2084c249.093189 0 404.253755-207.876331 445.769287-271.493656a56.001167 56.001167 0 0 0-46.742307-86.913811H112.898352a56.001167 56.001167 0 0 0-46.742307 86.913811c41.664868 63.617325 196.676097 271.493656 445.769287 271.493656m0 44.800934c-268.8056 0-433.075689-214.596471-483.252735-291.803413A101.250109 101.250109 0 0 1 12.096252-27.197900000000004a100.8021 100.8021 0 0 1 100.8021-100.8021H911.101648a100.8021 100.8021 0 0 1 100.8021 100.8021 101.250109 101.250109 0 0 1-16.576345 55.403821c-50.326382 77.057605-214.745807 291.803413-483.252735 291.803413z"  horiz-adv-x="1024" />

    
    <glyph glyph-name="tuihuoshouhou" unicode="&#57477;" d="M512 888A504 504 0 0 1 8 384a504 504 0 0 1 1008 0A504 504 0 0 1 512 888z m167.91493655-317.45620266L539.30531628 428.65822823v-37.76810132H645.97468372a31.89873389 31.89873389 0 1 0 0-63.79746877h-106.66936744v-41.34075947H645.97468372a31.89873389 31.89873389 0 1 0 0-63.79746876h-106.66936744v-121.98075947a21.6911392 21.6911392 0 0 0-21.6911392-21.69113921h-10.97316478a21.6911392 21.6911392 0 0 0-21.69113921 21.69113921V221.95442991000004h-107.94531628a31.89873389 31.89873389 0 0 0 0 63.79746876h107.69012691v42.36151894h-107.69012691a31.89873389 31.89873389 0 0 0 0 63.79746877h107.69012691V428.65822823l-140.60962027 140.60962027a31.89873389 31.89873389 0 0 0 45.16860699 45.16860698l122.4911392-122.4911392 122.49114019 122.4911392a31.89873389 31.89873389 0 0 0 45.16860698-45.16860698zM809.80658239 530.73417708a12.75949336 12.75949336 0 0 0-12.75949336 11.48354451v4.33822824a209.51088637 209.51088637 0 0 1-229.67088637 188.33012592 12.75949336 12.75949336 0 0 0-10.97316478 20.92557009A204.15189867 204.15189867 0 0 0 652.35442991 811.44303788a12.75949336 12.75949336 0 0 0 6.63493753-25.51898771 197.00658239 197.00658239 0 0 1-57.67291196-25.51898672 235.02987309 235.02987309 0 0 0 219.46329169-211.80759468v-4.33822824a12.75949336 12.75949336 0 0 0-10.97316478-13.52506345z"  horiz-adv-x="1024" />

    
    <glyph glyph-name="weixin" unicode="&#57361;" d="M355.27695636 513.9576131599999m-33.0157672 0a33.0157672 33.0157672 0 1 1 66.0315344 0 33.0157672 33.0157672 0 1 1-66.0315344 0ZM486.32101888 486.34257313a33.0157672 33.0157672 0 1 1-16.50788311 28.53214383 33.0157672 33.0157672 0 0 1 16.50788311-28.53214383zM575.28016888 367.32277133m-22.9276156 0a22.92761559 22.92761559 0 1 1 45.85523217 0 22.92761559 22.92761559 0 1 1-45.85523217 0ZM703.06341538 385.35916241a22.92761559 22.92761559 0 1 1 11.41285753-19.87060064 22.92761559 22.92761559 0 0 1-11.41285754 19.87060064zM511.99994881 893.33323095a503.99994881 503.99994881 0 1 1 503.99994881-503.99994881A503.69424722 503.69424722 0 0 1 511.99994881 893.33323095zM425.79211316 272.96289416a346.46175211 346.46175211 0 0 0-74.18357494 11.0052554l-74.18357592-36.68418534 21.09340701 63.17831953c-53.19206944 36.68418534-84.27172655 84.27172655-84.27172654 142.66072111 0 100.77960966 95.27698195 179.65060903 211.64737092 179.65060903 103.530924 0 195.24138736-63.28022006 213.99108215-148.46905139A148.26525033 148.26525033 0 0 1 619.40309202 485.73116994c-100.77960966 0-179.65060903-75.10067972-179.65060805-167.72824786a169.86815902 169.86815902 0 0 1 6.41973248-44.12292314c-7.4387378 0-13.85847028-0.91710478-20.38010329-0.91710478z m309.77756676-74.18357592l15.59077833-53.19206846-57.77759138 32.09866243a254.75128875 254.75128875 0 0 0-63.28022006-11.0052564c-100.77960966 0-179.65060903 68.68094723-179.65060903 152.85077325s78.76909884 152.85077325 179.65060903 152.85077325c95.27698195 0 179.65060903-68.68094723 179.65060805-152.85077325 0.10190053-46.56853589-31.07965711-88.55154787-74.18357494-120.85401135z"  horiz-adv-x="1024" />

    
    <glyph glyph-name="xiaoxi" unicode="&#57604;" d="M174.31123398 432.67038428a70.57196022 70.57196022 0 1 1 70.57196021 70.57196021A70.57196022 70.57196022 0 0 1 174.31123398 432.67038428z m0 0M453.1746975 432.67038428a70.57196022 70.57196022 0 1 1 70.57196022 70.57196021A70.57196022 70.57196022 0 0 1 453.1746975 432.67038428z m0 0M732.18704738 432.67038428a70.57196022 70.57196022 0 1 1 70.57196118 70.57196021A70.57196022 70.57196022 0 0 1 732.18704738 432.67038428z m0 0M995.86414101 604.78259181a452.31564529 452.31564529 0 0 1-110.32452063 143.67498255A541.94501273 541.94501273 0 0 1 526.57549159 879.32836184a542.09389907 542.09389907 0 0 1-358.81524148-130.72190113 450.52901394 450.52901394 0 0 1-110.32452065-143.67498255A406.45876003 406.45876003 0 0 1 16.6409675 427.31048829a413.60528738 413.60528738 0 0 1 56.87444897-208.44038967 472.86191214 472.86191214 0 0 1 133.99739308-144.86607044v-149.18376491a36.17929579 36.17929579 0 0 1 17.56854761-31.26605786 36.17929579 36.17929579 0 0 1 36.17929577 0l158.4146963 91.56488514a574.40215946 574.40215946 0 0 1 106.75125696-9.9753612A542.09389907 542.09389907 0 0 1 885.53962038 105.12120066a450.52901394 450.52901394 0 0 1 110.32452063 143.67498256 407.35207523 407.35207523 0 0 1 0 355.24197878z m-574.5510458-561.30019169a36.17929579 36.17929579 0 0 1-25.60839111-4.01992176L284.63575365-27.982876250000004a15.78191529 15.78191529 0 0 0-24.11953052 13.99528295l4.1688081 107.34680044a36.47706849 36.47706849 0 0 1-16.22857336 29.77719824C137.53639377 196.38831406999998 73.81318821 307.01060643999995 73.81318821 427.31048829 73.81318821 636.7930804499999 284.63575365 822.00725479 526.57549159 822.00725479s452.91118972-185.21417433 452.91118971-394.69676651-238.21758791-400.65220596-462.2910065-393.20790591"  horiz-adv-x="1054" />

    
    <glyph glyph-name="qq" unicode="&#57362;" d="M511.80951261-114.66666667000004A503.99984447 503.99984447 0 1 1 8.01660641 395.12746892v-11.69205089a503.58596695 503.58596695 0 0 1 503.7929062-498.1020847z m-210.76733377 413.87792611c3.62143195 45.83697989 33.93798975 84.32762723 51.73474064 104.50417655a64.8753653 64.8753653 0 0 0 14.69266608 62.08168936v1.86245029C367.98693369 558.9196588899999 432.24148123 624.31237035 513.67196291 624.31237035S659.87434123 558.9196588899999 659.87434123 468.17692278v-1.86245029a64.8753653 64.8753653 0 0 0 14.69266608-62.08168936c17.38287337-20.17654931 48.52718719-58.66719567 51.73474064-104.50417557a63.21985327 63.21985327 0 0 0-7.34633353-37.55942268c-7.34633353-9.20878383-26.5916572 1.8624503-41.38779192 32.07553945a186.86588386 186.86588386 0 0 0-33.73105148-63.11638364c34.86921539-8.27755819 43.97452959-42.1120793 33.00676509-60.52964695-8.27755819-12.83021578-26.5916572-23.79798028-58.66719666-23.79798028-57.73597102 0-82.77558483 15.62389172-94.36416707 26.59165621a11.381643 11.381643 0 0 1-10.34694774 3.62143196 12.51980691 12.51980691 0 0 1-10.34694872-3.62143196c-10.96776548-10.96776548-36.62819606-26.5916572-94.36416708-26.59165621-32.07553945 0-51.73474064 10.96776548-58.66719567 23.79798028-11.89899014 18.31409803-1.8624503 51.73474064 33.00676411 60.52964695A228.66755428 228.66755428 0 0 0 349.46589641 294.03778606000003C335.91139423 263.82469690999994 315.73484492 251.82223713999997 308.0781035 262.16918488a70.98006431 70.98006431 0 0 0-6.93245503 37.35248343z"  horiz-adv-x="1024" />

    
    <glyph glyph-name="fenxiang" unicode="&#58883;" d="M1106.95179671 368.17580339000006a39.01323608 39.01323608 0 0 1-78.02647217 0v-363.06194941a38.91371263 38.91371263 0 0 0-39.01323609-38.81418821H132.21804216a38.91371263 38.91371263 0 0 0-39.01323511 38.81418821V639.7756013000001a38.91371263 38.91371263 0 0 0 39.01323511 38.81418821h272.89360372a38.81418821 38.81418821 0 1 1 0 77.6283774 34.63419942 34.63419942 0 0 1-3.48332463-0.69666513h-268.71361397A116.64161348 116.64161348 0 0 1 15.875 638.9794127299999V4.317665410000018a116.64161348 116.64161348 0 0 1 116.84066037-116.4425656h857.99261666A116.64161348 116.64161348 0 0 1 1107.5489374 4.317665410000018V368.17580339000006z m-679.24830244-129.38062866a38.51561787 38.51561787 0 1 1 72.55267562-23.98517863h0.79618858a545.98625436 545.98625436 0 0 0 473.13500741 437.50557349L891.68233459 569.51196698a39.01323608 39.01323608 0 1 1 55.03652901-55.2355759l149.28534098 149.28534099a39.11275953 39.11275953 0 0 1 0 55.2355759l-149.28534098 149.28534099A39.01323608 39.01323608 0 0 1 891.68233459 813.44421472l82.20646095-82.60455571a623.21653699 623.21653699 0 0 1-546.28482472-491.94496083z m0 0"  horiz-adv-x="1126" />

    
    <glyph glyph-name="cart-inactive" unicode="&#58881;" d="M444.78326365 66.54572770000004c-37.747899 0-71.7460065-22.74873398-86.12020561-57.62179237-14.49919308-34.87305839-6.49963814-74.99582508 20.24887332-101.61934256 26.62351748-26.62351748 66.74628417-34.62307242 101.61934256-20.24887332 34.87305839 14.49919308 57.62179237 48.49730058 57.62179237 86.1202066-0.12499298 51.62212617-41.87266945 93.36980264-93.36980264 93.36980165z m25.49858063-118.74338929c-10.37442263-10.24942964-25.87355958-13.37425523-39.24781481-7.87456196-13.49924822 5.62468725-22.24876106 18.74895652-22.24876107 33.2481496 0 19.87389337 16.12410286 35.99799623 35.99799525 35.99799525 14.62418606 0 27.74845533-8.74951284 33.2481496-22.24876107 5.62468725-13.24926225 2.49986067-28.7483992-7.74956897-39.12282182zM915.38206737 66.54572770000004c-37.747899 0-71.7460065-22.74873398-86.12020561-57.62179237-14.49919308-34.87305839-6.49963814-74.99582508 20.24887233-101.61934256 26.62351748-26.62351748 66.74628417-34.62307242 101.61934355-20.24887332 34.87305839 14.49919308 57.62179237 48.49730058 57.62179237 86.1202066 0 51.62212617-41.87266945 93.36980264-93.36980264 93.36980165z m25.49858063-118.74338929c-10.37442263-10.24942964-25.87355958-13.37425523-39.2478158-7.87456196-13.49924822 5.62468725-22.24876106 18.74895652-22.24876106 33.2481496 0 19.87389337 16.12410286 35.99799623 35.99799623 35.99799525 14.62418606 0 27.74845533-8.74951284 33.24814861-22.24876107 5.62468725-13.24926225 2.62485366-28.7483992-7.74956798-39.12282182zM1174.36765011 743.50804312c-13.49924822 18.99894248-35.24803833 30.12332302-58.49674327 30.12332302H236.41986322L229.92022507 815.12905664C222.29564909 857.37670505 185.54769495 888 142.67508162 888h-96.99460017C29.80636456 888 17.05707425 875.25070969 17.05707425 859.37659378c0-15.74912292 12.74929031-28.62340622 28.6234072-28.6234072h96.99460017c14.99916502 0 27.87344831-10.49941561 30.74828794-25.12360167l93.36980264-597.96671288c8.49952687-46.74739781 49.24725848-80.74550531 96.7446142-80.62051134h676.21235752v0.12499298c15.74912292 0 28.62340622 12.74929031 28.62340622 28.62340622 0 15.74912292-12.74929031 28.62340622-28.62340622 28.6234072h-676.21235752c-19.49891442 0-36.37297519 13.74923419-40.24775868 32.87316966l-13.12427025 84.24530986h700.83598725c43.87255819-0.12499298 82.99538002 27.49846936 97.61956509 68.99615986l74.99582508 307.85786226c7.62457598 21.87378211 4.24976344 46.12243289-9.24948478 65.1213744z m-45.12248804-46.24742489l-0.87495089-2.62485464v-2.74984664l-74.87083209-304.73303667c-7.12460306-17.3740327-24.12365681-28.7483992-42.87261431-28.62340622H302.54118247L245.41936203 716.3845537h870.45154481c4.62474239 0 8.99949881-2.2498747 11.62435247-5.9996662 2.62485366-3.87478448 3.37481255-8.74951284 1.74990276-13.12426927z"  horiz-adv-x="1210" />

    
    <glyph glyph-name="Group" unicode="&#58886;" d="M967.227535 250.237023L531.908465 688.00893a33.744372 33.744372 0 0 1-25.48093 9.763721 33.768186 33.768186 0 0 1-25.433302-9.763721L45.698977 250.237023a34.625488 34.625488 0 0 1 0-48.628093 34.077767 34.077767 0 0 1 48.342325 0l379.522977 381.642419v-660.908651c0-15.741023 12.811907-28.648186 28.481488-28.648186h11.38307c15.717209 0 28.529116 12.907163 28.529116 28.648186V580.608L918.861395 201.585116a34.077767 34.077767 0 0 1 48.342326 0 34.625488 34.625488 0 0 1 0 48.628093M772.048372 827.201488H232.066977c-17.669953 0-32.148837 12.907163-32.148837 28.695814v11.430698C199.965767 883.116651 214.444651 896 232.114605 896h539.933767c17.717581 0 32.148837-12.907163 32.148837-28.648186v-11.454512c0-15.788651-14.431256-28.695814-32.148837-28.695814"  horiz-adv-x="1024" />

    
    <glyph glyph-name="xingxing" unicode="&#58887;" d="M778.47986-106.496c-12.288 0-24.576 3.071-37.888 10.239L533.74286 12.287c-5.12 3.072-12.288 5.12-20.479 5.12-7.168 0-15.36-2.048-20.48-4.096L286.95986-96.257c-12.288-7.168-24.576-10.239-38.912-10.239-24.576 0-48.128 11.264-64.513 29.695-16.384 18.433-22.527 43.008-18.432 67.584l39.937 229.376c2.048 14.336-3.072 28.672-13.313 38.912L25.83986 419.84C2.28786 442.367-5.90414 475.136 4.33586 505.856c10.239 30.721 35.84 52.225 67.584 57.345l229.376 33.792c14.336 2.048 27.647 11.264 33.791 23.552l102.4 208.896c14.336 28.672 43.008 46.08 74.752 46.08s60.416-17.408 74.752-46.08l102.4-208.896c7.168-13.313 19.456-21.504 33.792-23.552L952.55986 563.2c31.744-5.12 57.344-26.624 67.584-56.32 10.24-30.72 2.048-63.488-20.48-86.017L834.79986 259.072c-11.265-10.24-15.36-24.576-13.313-38.912l38.912-228.352c4.096-24.576-2.048-49.152-18.432-67.584-15.359-19.456-38.911-30.72-63.487-30.72z"  horiz-adv-x="1025" />

    


  </font>
</defs>
</svg>
